<?xml version="1.0" encoding="UTF-8"?>
<!DOCTYPE svg PUBLIC "-//W3C//DTD SVG 1.1//EN" "http://www.w3.org/Graphics/SVG/1.1/DTD/svg11.dtd">
<!-- Creator: CorelDRAW X7 -->
<svg xmlns="http://www.w3.org/2000/svg" xml:space="preserve" width="26mm" height="30.7162mm" version="1.1" style="shape-rendering:geometricPrecision; text-rendering:geometricPrecision; image-rendering:optimizeQuality; fill-rule:evenodd; clip-rule:evenodd"
viewBox="0 0 2600 3072"
 xmlns:xlink="http://www.w3.org/1999/xlink">
 <defs>
  <style type="text/css">
   <![CDATA[
    .fil0 {fill:#FEFEFE}
   ]]>
  </style>
 </defs>
 <g id="Слой_x0020_1">
  <metadata id="CorelCorpID_0Corel-Layer"/>
  <path class="fil0" d="M2059 2l0 384c0,88 71,160 159,160l382 0 0 -3 -541 -541zm-201 384l0 -386 -1601 0c-143,0 -257,118 -257,261l0 2553c0,143 114,258 257,258l2086 0c143,0 257,-115 257,-258l0 -2067 -382 0c-198,0 -360,-163 -360,-361zm-1288 1257l524 0 0 -523 412 0 0 523 524 0 0 413 -524 0 0 523 -412 0 0 -523 -524 0 0 -413z"/>
 </g>
</svg>
