<?xml version="1.0" encoding="UTF-8"?>
<!DOCTYPE svg PUBLIC "-//W3C//DTD SVG 1.1//EN" "http://www.w3.org/Graphics/SVG/1.1/DTD/svg11.dtd">
<!-- Creator: CorelDRAW X7 -->
<svg xmlns="http://www.w3.org/2000/svg" xml:space="preserve" width="26mm" height="26.0752mm" version="1.1" style="shape-rendering:geometricPrecision; text-rendering:geometricPrecision; image-rendering:optimizeQuality; fill-rule:evenodd; clip-rule:evenodd"
viewBox="0 0 4814 4828"
 xmlns:xlink="http://www.w3.org/1999/xlink">
 <defs>
  <style type="text/css">
   <![CDATA[
    .fil0 {fill:white}
   ]]>
  </style>
 </defs>
 <g id="Слой_x0020_1">
  <metadata id="CorelCorpID_0Corel-Layer"/>
  <path class="fil0" d="M4753 4148l-1155 -1194c-83,-85 -187,-120 -232,-76 -45,44 -149,9 -231,-76l-17 -18c517,-680 467,-1654 -154,-2275 -678,-679 -1778,-679 -2455,0 -679,678 -679,1777 0,2455 631,632 1629,674 2310,128l8 8c82,86 113,190 68,234 -45,43 -14,148 69,234l1155 1194c83,86 219,88 305,5l324 -313c86,-83 88,-220 5,-306zm-2171 -1566c-466,467 -1226,467 -1692,0 -467,-466 -467,-1226 0,-1692 466,-467 1226,-467 1692,0 467,467 467,1226 0,1692z"/>
 </g>
</svg>
