<?xml version="1.0" encoding="UTF-8"?>
<!DOCTYPE svg PUBLIC "-//W3C//DTD SVG 1.1//EN" "http://www.w3.org/Graphics/SVG/1.1/DTD/svg11.dtd">
<!-- Creator: CorelDRAW X7 -->
<svg xmlns="http://www.w3.org/2000/svg" xml:space="preserve" width="26mm" height="33.852mm" version="1.1" style="shape-rendering:geometricPrecision; text-rendering:geometricPrecision; image-rendering:optimizeQuality; fill-rule:evenodd; clip-rule:evenodd"
viewBox="0 0 1266 1649"
 xmlns:xlink="http://www.w3.org/1999/xlink">
 <defs>
  <style type="text/css">
   <![CDATA[
    .fil0 {fill:#FEFEFE}
   ]]>
  </style>
 </defs>
 <g id="Слой_x0020_1">
  <metadata id="CorelCorpID_0Corel-Layer"/>
  <g id="_1927561133552">
   <path class="fil0" d="M1171 404l0 1060c0,102 -83,185 -185,185l-711 0c-102,0 -186,-83 -186,-185l0 -1060c0,-18 15,-42 33,-42 342,0 668,0 1010,0 33,0 39,4 39,42z"/>
   <path class="fil0" d="M406 0l456 0c23,63 125,101 183,101l221 0c0,44 0,88 0,133 0,21 -16,30 -30,30 -404,0 -807,0 -1211,0 -26,0 -25,-16 -25,-30l0 -133 224 0c58,0 160,-38 182,-101l0 0z"/>
  </g>
 </g>
</svg>
